<svg version="1" xmlns="http://www.w3.org/2000/svg" width="530.667" height="530.667" viewBox="0 0 398.000000 398.000000"><path d="M199.4 75.5c.3.8.9 2.2 1.3 3.1.5 1.4.1 1.6-2.3 1.1-9.1-2-16.5-2.9-18-2.3-1.5.6-1.3 1.1 1.4 3.9 1.8 1.8 3.2 3.6 3.2 4 0 1.8-10.9.6-15.5-1.8-2.7-1.3-5.1-2.2-5.4-1.9-.3.3-.5 2.2-.4 4.3l.2 3.9-3.5-.8c-3.5-.8-3.7-.7-3.5 2.2.2 1.1-.7 1.9-2.6 2.4-5.8 1.3-6.9 1.7-10.2 4.1-2.5 1.9-3 2.8-2 3.4 1.1.6.4 1.8-2.6 4.9-2.1 2.2-4.4 4-5 4-1.9 0-7.5 6.1-8.2 8.9-.3 1.4-1.6 4.4-2.9 6.6-1.3 2.2-2.7 5.8-3.3 8-.5 2.2-1.9 6.6-3.1 9.8-3.2 9.1-4.3 24.9-3 46 .5 10 1.3 20.1 1.7 22.5l.6 4.3-4-.7c-5.6-.9-9.9 1.6-12.4 6.9-3.6 8-1.9 26.8 3.2 37 3.7 7.2 11 16.7 14.1 18.3 2.8 1.5 2.9 1.8 2.3 6.3-.5 3.7-.3 5 .9 6 .9.8 1.6 2.9 1.6 5.1 0 9.7 7.9 25.1 15.5 30.3 1.9 1.3 4.8 4.2 6.4 6.4l2.9 4-17.6 5.6c-14.8 4.7-29 8.7-30.8 8.7-3.4 0 10.4 8.8 22.2 14 10.2 4.7 18.5 7.7 28.5 10.4l8.9 2.5v-17.4l4.1 7.5c6 11 6.1 11.1 10.5 6.4 2.1-2.1 5.4-6 7.5-8.7 2.1-2.6 4-4.4 4.2-4 .2.5 1.5 4.7 2.7 9.4 2.4 9.4 3.5 11.8 4.7 10.6.6-.7-3.4-18-5.3-23.2-.6-1.3-.2-1.5 2.2-.8 3.8 1 12 1 16.1 0l3.3-.9-5.5 11.7c-5.7 12.2-6.2 13.5-4.5 13.5.5 0 3.6-5.2 6.8-11.5l5.7-11.6 4.2 6.3c4.8 7.3 10.7 13.3 12.2 12.4.5-.4 2.7-4 4.8-8.2l3.8-7.5.3 7.6.3 7.6 3.2-.6c13.1-2.9 38.6-13.6 51.2-21.7l5-3.2-4.5-1.2c-2.5-.7-9.1-2.4-14.7-3.8-12.7-3.2-32.7-10.9-29.6-11.4 1.1-.2 4.4-2.8 7.3-5.8 2.8-3 5.7-5.4 6.5-5.4 5 0 11.4-20.7 11.9-38.7.1-4.7.4-5.4 2.9-6.4 3.5-1.5 13-14.4 15.6-21.3 4.6-12.4 5.4-28.9 1.6-35.3-3.2-5.5-9.8-7.8-14.7-5.2-1.9 1-2 .9-1.5-2.2 3.8-20.5 3.4-46-.8-62.5-2.6-9.9-10.4-24.4-15.8-29.1-1.7-1.5-4.7-4.6-6.6-6.8-7.3-8.1-12.5-12.5-20.2-17.1-4.3-2.5-7.9-4.9-7.9-5.3 0-1.8-12.4-13.3-17.2-16.1-5.8-3.3-9.4-3.9-8.4-1.5zm.5 10.6c2.2.8 2.9 1.5 2.2 2.2-.6.6-1.9.3-3.7-1.2-3.1-2.4-2.9-2.5 1.5-1zm15.1 3.4c1.9 1.9 3.2 3.5 2.9 3.5-.3 0-2-1.6-3.9-3.5s-3.2-3.5-2.9-3.5c.3 0 2 1.6 3.9 3.5zm-8-.5c.8.5 1.1 1 .5 1-.5 0-1.7-.5-2.5-1s-1-1-.5-1c.6 0 1.7.5 2.5 1zm8 4c0 .5-.2 1-.4 1-.3 0-.8-.5-1.1-1-.3-.6-.1-1 .4-1 .6 0 1.1.4 1.1 1zm-21.9 8.6c.9 1.1.2.9-1.8-.6-1.8-1.3-3.3-2.5-3.3-2.7 0-.8 3.8 1.7 5.1 3.3zm4.4 18.9c2.9 4.4 6 9.7 6.9 11.8l1.5 3.7-5.8-5.1c-3.3-2.9-7.6-7.2-9.7-9.8-3.4-4.2-3.2-4.1 2.4 1.4 3.4 3.3 6.2 5.4 6.2 4.6 0-1.9-7.9-13.7-14.4-21.7l-5.7-6.9 6.6 7c3.7 3.8 9 10.6 12 15zm8-13.5c.4 0 .5-1.2.1-2.8-.4-2.4-.3-2.3 1 .7 1.4 3.2 3.2 10.1 2.2 9.1-.2-.3-3.3-3.6-6.8-7.5-6.1-6.5-6.2-6.7-1.8-3.2 2.5 2 4.9 3.7 5.3 3.7zm-29.9-.9c.8 1.7 1.4 3.4 1.2 3.8-.2.4-1.2-1.2-2.4-3.5-2.3-4.8-1.3-5 1.2-.3zm70.2 9.7c3.2 4.2 4.5 6.2 3.9 6.2-.2 0-1.7-1.8-3.2-4-1.5-2.2-3.3-4-3.9-4-.6 0-2.7-1.9-4.6-4.3l-3.5-4.2 4.2 3.3c2.3 1.8 5.5 5 7.1 7zm-90.7-6.1c1.3 1.6 1.2 1.7-.3.4-1.7-1.3-2.2-2.1-1.4-2.1.2 0 1 .8 1.7 1.7zm22.6 7c-.3 1-.5.2-.5-1.7s.2-2.7.5-1.8c.2 1 .2 2.6 0 3.5zm-28.2-.8c2.2 1 4.7 2.6 5.5 3.7 1.4 1.7 1.4 1.8-.2.5-1-.7-4.3-2.4-7.5-3.7-3.2-1.3-4.9-2.4-3.8-2.4 1.1 0 3.8.9 6 1.9zm29.2 6.3c-.3.8-.6.5-.6-.6-.1-1.1.2-1.7.5-1.3.3.3.4 1.2.1 1.9zm-38 2.5c-.9.2-1.5.8-1.3 1.2.3.4-1.1.5-3.1.3-4.5-.6-2.3-2.2 2.7-2.1 1.9.1 2.7.3 1.7.6zm27.8 28.8c18.5 2.6 31.7 2.9 45 1.2 19.6-2.6 26.7-3 31.1-1.8 5.7 1.5 10.4 5 12.6 9.3 1.7 3.3 2.3 6 3.2 16.3.1 1.6.8 4 1.5 5.2.7 1.5.8 2.3.1 2.3-1.7 0-1.1 1.7 1.7 5 2.3 2.7 3.1 3.1 6 2.7 3.8-.7 3.9-.6 2.2 10.8-.5 3.8-1.4 16.7-1.9 28.5-1.1 26.9-2.6 35.2-8.1 46.1-3.5 7-4.3 8.1-5 6.4-.4-1.1-.8-1.4-.8-.7-.1 2.3-4.3 11.2-5.2 11.2-.5 0-1-1.2-1-2.8-.1-1.5-.7-.2-1.3 3.3l-1.2 6-1.8-3.3c-1-1.9-2-3.1-2.3-2.8-.3.3-1.4-.6-2.5-2-1.1-1.3-3.9-3.4-6.1-4.6-4-2.1-5.4-2.2-36.7-2.4-21.4-.1-33.9.2-36.5.9-2.2.7-5.9 3-8.4 5.4-2.4 2.4-4.5 4.2-4.6 4-.1-.1-1-1.3-1.9-2.7l-1.8-2.5.4 3.2c.3 1.8.3 3.3.2 3.3-.1 0-1.9-2.7-3.9-6-3.6-5.9-5.3-7.7-4.1-4.3.9 2.5-2.6-2-6.5-8.6-4.3-7-5.7-14-7-34.6-.5-9.4-1.7-23.1-2.5-30.5-2-19.3-2-21 1-21 3.2 0 9.3-5.7 7.8-7.2-.8-.8-.7-1.9.4-4.1 1.1-2 1.2-3.2.5-3.6-.7-.5-.6-1.6.4-3.5 1.8-3.3 1.9-3.9.5-3.1-3.1 1.9 2.2-10.6 6.1-14.6 5.9-5.9 12.2-6.8 30.4-4.4zm-53.6 68.2c1.4 1.2 2.3 3.5 2.8 6.8l.6 4.9-3.3-3.7c-3.5-4-6.8-6.2-7.8-5.3-.3.4.9 2.1 2.6 3.9 3.2 3.3 3.2 3.4 1.7 7-1.7 4.2-2 11-.5 13.8 1.7 3.1 2.9 2.2 1.8-1.4-.7-2.3-.7-4.5.1-7.5 2.1-7.6 5.1-4.1 5.2 6 0 3.5.4 8.8.8 11.8.5 3 .7 5.7.5 5.9-.2.2-1.7-1.1-3.4-2.9-1.6-1.8-3-2.8-3-2.2 0 1.6 4 6.1 6 6.7 2.7.9 3 7.8.3 7.3-2.5-.5-11.9-14.9-13.8-21-2-6.3-3-19.1-2.1-24.2 1.3-6.8 6.9-9.7 11.5-5.9zm172 .5c1.2 1.2 2.4 3.7 2.7 5.6.9 4.8-.2 17.6-2.1 23.9-1.7 5.7-10.7 19.8-13.7 21.4-1.6.9-1.8.5-1.8-3 0-3.1.4-4.1 2-4.6 1.8-.6 6-5.4 6-7 0-.4-1.4.7-3 2.5-1.7 1.8-3.2 3.1-3.4 2.9-.2-.2 0-2.9.5-5.9.4-3 .8-8.5.8-12.1.1-7 2.2-11.7 4-9 1.5 2.3 2.2 8.8 1.1 11.5-1.2 3.4.3 3.4 1.8.1 1.6-3.5 1.5-7.4-.3-12.5-1.6-4.5-1.1-6 3.4-9.6 1.1-.9 1.2-1.2.1-1.9-.9-.5-2.7.7-5.7 3.8l-4.3 4.6v-4c0-7.4 7.4-11.6 11.9-6.7zm-62.2 75.5c-2 2-17.3 4.3-28.2 4.3-11.2 0-27.3-2.4-29.3-4.3-1-1 4.9-1.3 28.8-1.3 23.3.1 29.7.3 28.7 1.3zm-63.1 2c-.1 1.3 1.5 1.9 7.4 3 21.8 3.8 28.5 4.1 43 1.8 5.2-.9 11.5-1.9 13.8-2.2 3.2-.4 4.6-1.1 5.1-2.7l.8-2 1.2 2.1c2.2 4.3 1.4 9-2.3 12.7-4.5 4.5-13.5 8.8-19.6 9.4-4.7.4-5 .3-6.9-2.9l-2-3.3 2.9-1.3c1.7-.6 3-1.4 3-1.5 0-.2-5.4-.4-12-.3-9.9 0-11.7.2-10.3 1.2.9.7 2.3 1.3 3 1.3 1.9 0 1.6 1.3-.9 4.5-1.9 2.4-2.6 2.7-6.9 2.3-10.3-1-22.9-10.4-22.9-17 0-1.7.7-4 1.7-5 2-2.2 2.1-2.2 1.9-.1zm8.2 50.3c1.9 0 9.4 3.5 12 5.6.8.6-3.2 6.7-7.9 11.8l-5.2 5.7-5.3-10c-4.9-9.1-5.3-10.4-4.8-14.5l.6-4.4 4.1 2.9c2.2 1.6 5.1 2.9 6.5 2.9zm60.4 14.5l-4.5 9-2.9-3.5c-1.7-1.9-4.8-6.2-6.9-9.5l-3.8-5.9 5.1-2.8c2.8-1.5 6.5-2.8 8.2-2.8 1.7-.1 4.2-.7 5.6-1.5 2.5-1.3 2.5-1.3 3.1 3.3.5 4.2.1 5.7-3.9 13.7z"/><path d="M155.4 200.9c-4.9 1.2-9.9 4.7-12.9 9.1-1.5 2.2-2.6 4.2-2.4 4.5.3.2 2.5-.9 5.1-2.5 6.8-4.2 11.2-5.1 19.9-4 4.1.5 9.4 1.3 11.7 1.8 4.6 1.1 5.4.6 4.5-2.6-1-4.1-18.1-8.2-25.9-6.3zM224.5 201c-5.2 1-12.5 4-12.5 5 0 .5-.3 1.6-.7 2.6-.7 1.9-.6 1.9 15.9-.6 9-1.3 13.5-.4 20.6 4 2.6 1.6 4.8 2.7 5.1 2.5.8-.9-4.9-8.1-8.2-10.3-6-4-11.6-4.9-20.2-3.2zM156.9 220.1c-7.8 1.2-13.6 5.2-15.8 11.1-.9 2.4-.7 2.9 1.9 4.8 5.3 3.8 10.2 5.2 17.7 5.2 6.2 0 8.1-.4 13.9-3.4 3.7-1.8 7.2-4.1 7.7-4.9 1.4-2.2-2.5-8.4-6.6-10.6-3.9-2-12.8-3-18.8-2.2zm6.9 4.6c-.4 2-3.5 3-5 1.5s0-3.2 2.8-3.2c1.9 0 2.5.5 2.2 1.7zm-9.4 2.8c-.5 3-.2 3.9 2.4 6.5 3.9 3.9 8.3 4 11.8.4 2.1-2 2.5-3.3 2.2-6.3-.3-3.8-.3-3.8 2.4-2.9 2.6.9 6.8 5.1 6.8 6.8 0 .4-3.1 2.1-6.8 3.9-8.7 3.9-16.5 4.2-23.2.8-5.1-2.5-6-4.9-3.3-7.9 1.4-1.6 6.4-4.5 8.1-4.8.2 0 0 1.6-.4 3.5zM218.4 221.9c-4 1.8-8.4 7.2-8.4 10.3 0 .9 3.2 3.2 7.5 5.3 6.7 3.4 8.3 3.8 14.7 3.8 7.5 0 12.4-1.5 17.8-5.3 2.6-1.8 2.8-2.3 1.9-5-1.4-3.9-6.9-8.6-11.6-9.9-6.1-1.7-17.2-1.3-21.9.8zm12.4 2.8c-.4 2-3.5 3-5 1.5s0-3.2 2.8-3.2c1.9 0 2.5.5 2.2 1.7zm-8.6 3.2c-.7 7.5 7.1 11.8 13.1 7.1 3-2.4 4.1-6.3 2.6-9.1-1-1.9-.9-2 1.3-1.4 2.9.8 6.8 3.6 8.1 5.7 1.6 2.5 0 4.8-4.9 7-6.6 2.9-16 2.3-23.7-1.6-3.1-1.6-5.7-3.2-5.7-3.5 0-1.7 3.6-5.5 6.4-6.7 1.7-.7 3.1-1.3 3.1-1.4 0 0-.1 1.8-.3 3.9zM205.6 229.3c-1 3.2-.3 22.2.9 24.9 1.3 3.1 2.6 2 2-1.6-.4-1.9-1-8.5-1.4-14.7-.5-8.5-.9-10.7-1.5-8.6zM178.1 270.8c-2.5 5.9 1.2 10.5 6.9 8.7 1.5-.5 3 .2 5.6 2.4 4.3 3.9 7 3.9 11.4.2 2.8-2.3 4.2-2.8 6.7-2.4 1.9.3 3.9 0 4.8-.7 1.7-1.4 2.1-8.5.5-9.5-.5-.3-.9.8-.8 2.8.2 4.9-.6 5.7-4.5 4.6-2.6-.7-3.7-.5-6 1.2-1.6 1.2-4.4 2.1-6.2 2.1-1.8 0-4.6-.9-6.2-2.1-2.3-1.7-3.4-1.9-6-1.2-4.2 1.2-5.8-.6-4.9-5.4.8-4.2.3-4.5-1.3-.7z"/></svg>